<svg version="1.1" xmlns:x="ns_extend;" xmlns:i="ns_ai;" xmlns:graph="ns_graphs;" xmlns="http://www.w3.org/2000/svg" xmlns:xlink="http://www.w3.org/1999/xlink" x="0px" y="0px" viewBox="0 0 277.6 96.6" style="enable-background:new 0 0 277.6 96.6;" xml:space="preserve">
 <style type="text/css">
  .st0{fill:#4C4C4C;}
	.st1{fill:#808080;}
	.st2{display:none;}
	.st3{display:inline;}
	.st4{fill:none;stroke:#ED1C24;stroke-width:0.3175;stroke-miterlimit:10;stroke-dasharray:2.1169;}
	.st5{display:inline;fill:none;stroke:#ED1C24;stroke-width:0.3175;stroke-miterlimit:10;stroke-dasharray:2.1169;}
	.st6{display:inline;fill:none;stroke:#ED1C24;stroke-width:0.3;stroke-miterlimit:10;stroke-dasharray:2;}
	.st7{display:inline;fill:none;stroke:#ED1C24;stroke-width:0.3;stroke-miterlimit:10;stroke-dasharray:1.9999;}
	.st8{fill:none;stroke:#ED1C24;stroke-width:0.3;stroke-miterlimit:10;}
	.st9{fill:#ED1C24;}
	.st10{display:inline;fill:#ED1C24;}
	.st11{display:inline;opacity:0.15;fill:#ED1C24;}
	.st12{display:inline;fill:none;stroke:#ED1C24;stroke-width:0.317;stroke-miterlimit:10;stroke-dasharray:2.1132;}
 </style>
 <metadata>
  <sfw xmlns="ns_sfw;">
   <slices>
   </slices>
   <sliceSourceBounds bottomLeftOrigin="true" height="185.9" width="366.9" x="779.3" y="-316">
   </sliceSourceBounds>
  </sfw>
 </metadata>
 <g id="Logo">
  <g>
   <g>
    <path class="st0" d="M85.6,67.6V22.5L46.5,0v17.3l15.3,8.8c0.6,0.3,0.6,1.2,0,1.5c0,0-18.2,10.5-18.2,10.5
				c-0.5,0.3-1.2,0.3-1.7,0L23.7,27.6c-0.6-0.3-0.6-1.2,0-1.5L39,17.3L39,0L0,22.5v45.1l0-0.2v0.2L15,59l0-17.7
				c0-0.6,0.7-1.1,1.3-0.7c0,0,18.2,10.5,18.2,10.5c0.5,0.3,0.9,0.9,0.9,1.5l0,21c0,0.6-0.7,1.1-1.3,0.7l-15.3-8.8l-15,8.6l39,22.5
				l39-22.5l-15-8.6l-15.3,8.8c-0.5,0.3-1.3-0.1-1.3-0.7l0-21c0-0.6,0.3-1.2,0.9-1.5l18.2-10.5c0.5-0.3,1.3,0.1,1.3,0.7l0,17.7
				L85.6,67.6z">
    </path>
    <path d="M42.8,96.6l39-22.5l-15-8.6l-15.3,8.8c-0.5,0.3-1.3-0.1-1.3-0.7c0,0,0-21,0-21c0-0.6,0.3-1.2,0.9-1.5l18.2-10.5
				c0.5-0.3,1.3,0.1,1.3,0.7c0,0,0,17.7,0,17.7l15,8.6V22.5L42.8,47.2L42.8,96.6z">
    </path>
    <path class="st1" d="M46.5,0v17.3l15.3,8.8c0.6,0.3,0.6,1.2,0,1.5c0,0-18.2,10.5-18.2,10.5c-0.5,0.3-1.2,0.3-1.7,0L23.7,27.6
				c-0.6-0.3-0.6-1.2,0-1.5c0,0,15.3-8.8,15.3-8.8L39,0L0,22.5l42.8,24.7l42.8-24.7L46.5,0z">
    </path>
    <path class="st0" d="M34,74.3l-15.3-8.8l-15,8.6l39,22.5l0-49.4L0,22.5v45.1l0-0.2v0.2L15,59l0-17.7c0-0.6,0.7-1.1,1.3-0.7
				c0,0,18.2,10.5,18.2,10.5c0.5,0.3,0.9,0.9,0.9,1.5l0,21C35.3,74.2,34.6,74.6,34,74.3z">
    </path>
   </g>
   <g>
    <path d="M108.1,52.6V25.2h11.5V53c0,4.5,2.3,7.6,8,7.6c5.3,0,7.9-3.2,7.9-7.8V25.2h11.5v27.4c0,10.7-6.4,17.2-19.4,17.2
				C114.5,69.8,108.1,63.5,108.1,52.6z">
    </path>
    <path d="M152.3,35.7h10.2v4.5h0.2c2.5-3.6,5.7-5.5,10.3-5.5c7.3,0,11.6,5.2,11.6,12.6V69h-10.6V49.5c0-3.5-1.8-5.9-5.2-5.9
				c-3.5,0-5.8,2.9-5.8,7V69h-10.6V35.7z">
    </path>
    <path d="M189.9,22.5h10.6v8.6h-10.6V22.5z M189.9,35.7h10.6V69h-10.6V35.7z">
    </path>
    <path d="M208.9,60.2V44.3h-4.4v-8.6h4.4V25.2h10.3v10.5h6v8.6h-6v13.6c0,2.6,1.4,3.2,3.7,3.2c0.9,0,1.9-0.1,2.3-0.1v7.7
				c-0.9,0.3-2.9,0.5-5.8,0.5C213.3,69.4,208.9,67.4,208.9,60.2z">
    </path>
    <path d="M231.8,71.7h3.6c3.1,0,4.4-1.2,4.4-3.5c0-1.4-0.6-3.4-2-6.9L228,35.7h11.2l4.5,14.2c1,3.2,2.1,7.7,2.1,7.7h0.1
				c0,0,0.9-4.4,1.9-7.7l4.4-14.2h10.6l-11.5,33.7c-2.7,7.8-5.8,10.5-12.5,10.5h-6.9V71.7z">
    </path>
    <g>
     <path d="M277.3,38.3c-0.2-0.5-0.5-1-0.9-1.4c-0.4-0.4-0.8-0.7-1.4-0.9c-0.5-0.2-1.1-0.3-1.6-0.3s-1.1,0.1-1.6,0.3
					c-0.5,0.2-1,0.5-1.4,0.9s-0.7,0.8-0.9,1.4c-0.2,0.5-0.3,1.1-0.3,1.6c0,0.6,0.1,1.1,0.3,1.6c0.2,0.5,0.5,1,0.9,1.4
					s0.8,0.7,1.4,0.9c0.5,0.2,1.1,0.3,1.6,0.3s1.1-0.1,1.6-0.3c0.5-0.2,1-0.5,1.4-0.9c0.4-0.4,0.7-0.8,0.9-1.4
					c0.2-0.5,0.3-1.1,0.3-1.6C277.6,39.4,277.5,38.8,277.3,38.3z M276.2,41.6c-0.3,0.5-0.7,0.9-1.2,1.2c-0.5,0.3-1,0.4-1.6,0.4
					c-0.6,0-1.1-0.1-1.6-0.4c-0.5-0.3-0.9-0.7-1.2-1.2c-0.3-0.5-0.4-1-0.4-1.6c0-0.6,0.1-1.1,0.4-1.6c0.3-0.5,0.7-0.9,1.2-1.2
					c0.5-0.3,1-0.4,1.6-0.4c0.6,0,1.1,0.1,1.6,0.4c0.5,0.3,0.9,0.7,1.2,1.2c0.3,0.5,0.4,1,0.4,1.6C276.6,40.5,276.5,41.1,276.2,41.6
					z">
     </path>
     <path d="M274.9,39.9c0.1-0.2,0.2-0.4,0.2-0.7c0-0.3-0.1-0.5-0.2-0.7c-0.1-0.2-0.3-0.3-0.5-0.4c-0.2-0.1-0.4-0.1-0.5-0.1h-2v3.9
					h0.9v-1.3h0.9l0.7,1.3h0.9l-0.8-1.5C274.6,40.2,274.8,40.1,274.9,39.9z M272.8,38.6h0.8c0.1,0,0.2,0,0.4,0.1
					c0.1,0.1,0.2,0.2,0.2,0.5c0,0.2-0.1,0.4-0.2,0.5c-0.1,0.1-0.3,0.2-0.4,0.2h-0.8V38.6z">
     </path>
    </g>
   </g>
  </g>
 </g>
 <g id="Guides" class="st2">
  <g class="st3">
   <line class="st4" x1="-44.6" y1="22.5" x2="322.2" y2="22.5">
   </line>
  </g>
  <line class="st5" x1="-44.6" y1="69" x2="322.2" y2="69">
  </line>
  <line class="st6" x1="0" y1="141.3" x2="0" y2="-44.6">
  </line>
  <line class="st6" x1="70.6" y1="141.3" x2="70.6" y2="-44.6">
  </line>
  <line class="st7" x1="152.3" y1="141.3" x2="152.3" y2="-44.6">
  </line>
  <line class="st7" x1="184.5" y1="141.3" x2="184.5" y2="-44.6">
  </line>
  <line class="st7" x1="189.9" y1="141.3" x2="189.9" y2="-44.6">
  </line>
  <line class="st6" x1="262.7" y1="141.3" x2="262.7" y2="-44.6">
  </line>
  <line class="st6" x1="269.1" y1="-44.6" x2="269.1" y2="141.3">
  </line>
  <line class="st6" x1="277.6" y1="-44.6" x2="277.6" y2="141.3">
  </line>
  <line class="st7" x1="85.6" y1="-44.6" x2="85.6" y2="141.3">
  </line>
  <line class="st7" x1="108.1" y1="141.3" x2="108.1" y2="-44.6">
  </line>
  <line class="st7" x1="146.9" y1="141.3" x2="146.9" y2="-44.6">
  </line>
  <line class="st6" x1="0" y1="141.3" x2="0" y2="-44.6">
  </line>
  <path class="st11" d="M-17.2,69h-27.4V57.5h27.8c4.5,0,7.6-2.3,7.6-8c0-5.3-3.2-7.9-7.8-7.9h-27.6V30.1h27.4
		C-6.5,30.1,0,36.6,0,49.5C0,62.5-6.4,69-17.2,69z">
  </path>
  <line class="st12" x1="-44.6" y1="0" x2="320.1" y2="0">
  </line>
  <line class="st12" x1="-44.6" y1="96.6" x2="322.2" y2="96.6">
  </line>
 </g>
</svg>