<?xml version="1.0" encoding="utf-8"?>
<!-- Generator: Adobe Illustrator 19.2.1, SVG Export Plug-In . SVG Version: 6.00 Build 0)  -->
<svg version="1.1" id="layer" xmlns="http://www.w3.org/2000/svg" xmlns:xlink="http://www.w3.org/1999/xlink" x="0px" y="0px"
	 viewBox="0 0 652 652" style="enable-background:new 0 0 652 652;" xml:space="preserve">
<style type="text/css">
	.st0{fill:#1792FF;}
	.st1{fill:#FFFFFF;}
</style>
<g>
	<g>
		<path class="st0" d="M315.3,348.7v37h-17.9v-37l-35.2-58.6h15.8c1.6,0,2.8,0.4,3.7,1.1c0.9,0.7,1.7,1.7,2.3,2.8l17.6,31.9
			c1,1.9,1.9,3.7,2.7,5.4c0.8,1.7,1.5,3.4,2.1,5c0.6-1.7,1.2-3.4,2-5c0.8-1.7,1.6-3.5,2.6-5.4l17.6-31.9c0.5-1,1.2-1.9,2.2-2.7
			s2.2-1.3,3.7-1.3h15.9L315.3,348.7z"/>
		<path class="st0" d="M446.9,337.9c0,7-1.2,13.5-3.5,19.5c-2.3,6-5.6,11.1-9.9,15.5c-4.3,4.4-9.4,7.8-15.4,10.2
			c-6,2.4-12.7,3.6-20,3.6c-7.3,0-13.9-1.2-20-3.6c-6-2.5-11.2-5.9-15.5-10.2c-4.3-4.4-7.6-9.5-9.9-15.5c-2.4-6-3.5-12.5-3.5-19.5
			c0-7,1.2-13.5,3.5-19.4c2.4-6,5.7-11.2,9.9-15.5c4.3-4.4,9.5-7.8,15.5-10.2c6-2.5,12.7-3.7,20-3.7c4.9,0,9.5,0.6,13.8,1.7
			c4.3,1.1,8.3,2.7,11.9,4.8c3.6,2,6.8,4.5,9.7,7.5c2.9,2.9,5.3,6.2,7.3,9.8c2,3.6,3.5,7.5,4.5,11.8
			C446.3,328.8,446.9,333.3,446.9,337.9z M428.5,337.9c0-5.2-0.7-9.9-2.1-14.1c-1.4-4.2-3.4-7.7-6.1-10.6c-2.6-2.9-5.8-5.1-9.6-6.7
			c-3.7-1.5-8-2.3-12.7-2.3c-4.7,0-9,0.8-12.7,2.3c-3.7,1.5-6.9,3.8-9.6,6.7c-2.6,2.9-4.6,6.5-6.1,10.6c-1.4,4.1-2.1,8.8-2.1,14.1
			c0,5.2,0.7,10,2.1,14.2c1.4,4.1,3.4,7.7,6.1,10.6c2.7,2.9,5.9,5.1,9.6,6.6c3.8,1.5,8,2.3,12.7,2.3c4.7,0,8.9-0.8,12.7-2.3
			c3.8-1.5,7-3.7,9.6-6.6c2.6-2.9,4.6-6.4,6.1-10.6C427.8,347.9,428.5,343.2,428.5,337.9z"/>
		<path class="st0" d="M519.2,371.1v14.7h-56.5v-95.6h18v80.9H519.2z"/>
		<path class="st0" d="M620.6,337.9c0,7-1.2,13.5-3.5,19.5c-2.3,6-5.6,11.1-9.9,15.5c-4.3,4.4-9.4,7.8-15.4,10.2
			c-6,2.4-12.7,3.6-20,3.6c-7.3,0-14-1.2-20-3.6c-6-2.5-11.2-5.9-15.5-10.2c-4.3-4.4-7.6-9.5-9.9-15.5c-2.4-6-3.5-12.5-3.5-19.5
			c0-7,1.2-13.5,3.5-19.4c2.4-6,5.7-11.2,9.9-15.5c4.3-4.4,9.5-7.8,15.5-10.2c6-2.5,12.7-3.7,20-3.7c4.9,0,9.5,0.6,13.8,1.7
			c4.3,1.1,8.3,2.7,11.9,4.8c3.6,2,6.8,4.5,9.7,7.5c2.9,2.9,5.3,6.2,7.3,9.8c2,3.6,3.5,7.5,4.5,11.8
			C620.1,328.8,620.6,333.3,620.6,337.9z M602.3,337.9c0-5.2-0.7-9.9-2.1-14.1c-1.4-4.2-3.5-7.7-6.1-10.6c-2.6-2.9-5.8-5.1-9.6-6.7
			c-3.7-1.5-8-2.3-12.7-2.3c-4.7,0-9,0.8-12.8,2.3c-3.7,1.5-6.9,3.8-9.6,6.7c-2.6,2.9-4.6,6.5-6.1,10.6c-1.4,4.1-2.1,8.8-2.1,14.1
			c0,5.2,0.7,10,2.1,14.2c1.4,4.1,3.4,7.7,6.1,10.6c2.7,2.9,5.9,5.1,9.6,6.6c3.8,1.5,8,2.3,12.8,2.3c4.7,0,8.9-0.8,12.7-2.3
			c3.8-1.5,7-3.7,9.6-6.6c2.6-2.9,4.7-6.4,6.1-10.6C601.6,347.9,602.3,343.2,602.3,337.9z"/>
		<path class="st0" d="M20.6,325.1c0-2.2,0-4.4,0-6.5c0.1-0.7,0.4-1.4,0.4-2.1c0.5-10.8,2.8-21.2,7.3-31
			c14.7-32.2,39.7-50.9,74.8-55.7c2.4-0.3,4.8-0.5,7.1-0.8c2.2,0,4.4,0,6.5,0c0.7,0.1,1.4,0.4,2.1,0.4c10.8,0.5,21.2,2.8,31,7.3
			c32.2,14.7,50.8,39.6,55.7,74.6c0.3,2.4,0.5,4.9,0.8,7.3c0,2.2,0,4.4,0,6.5c-0.1,0.7-0.4,1.4-0.4,2.1c-0.5,10.9-2.8,21.4-7.4,31.4
			c-14.7,31.9-39.5,50.4-74.3,55.3c-2.5,0.4-5,0.5-7.5,0.8c-2.2,0-4.4,0-6.5,0c-0.7-0.1-1.4-0.4-2.1-0.4c-11-0.5-21.6-2.8-31.5-7.5
			c-31.9-14.8-50.4-39.7-55.2-74.6C21.1,329.9,20.9,327.5,20.6,325.1z M97,322.7c-0.7,0.7-1.9,1.6-2.8,2.7
			C82.1,340.2,70,355,57.9,369.8c-2,2.4-1.5,4.3,1.5,5.4c16.6,6.4,33.2,12.8,49.8,19.2c7.3,2.8,14.6,5.6,22,8.5
			c2.4,0.9,4.5,0.1,4.6-2c0-0.9-0.4-1.9-0.8-2.7c-7.6-16.3-15.3-32.6-22.9-48.8c-3.8-8.1-7.6-16.1-11.4-24.2
			C100,323.7,99.1,322.9,97,322.7z M136.8,267.7c-0.3-4.6-0.6-8.9-0.9-13.3c-0.3-3.7-0.4-7.4-0.9-11c-0.1-1-1-2.2-1.9-2.8
			c-1.2-0.7-2.4-0.1-3.4,0.9c-14.4,14.3-28.8,28.7-43.2,43c-1.1,1.1-1.4,2.2-0.8,3.7c3,7.8,6,15.7,9,23.5c1.2,3,3.6,3.3,5.7,0.8
			c11.6-13.5,23.2-27,34.8-40.4C136.4,270.8,137.3,269.4,136.8,267.7z M83,295.2c-2.2,0.3-2.9,1.5-3.4,3c-2.7,7.3-5.5,14.7-8.2,22
			c-5.2,14-10.5,28-15.7,42c-0.4,1-0.8,2.2,0.5,2.6c0.6,0.2,1.9-0.4,2.3-1C69.7,349.4,80.9,335,92,320.5c0.7-0.9,1.1-2.5,0.7-3.4
			c-2.3-6.5-4.8-13-7.4-19.5C85,296.6,83.8,295.9,83,295.2z"/>
		<path class="st1" d="M97,322.7c2.1,0.1,3,1,3.6,2.3c3.8,8.1,7.6,16.1,11.4,24.2c7.7,16.3,15.3,32.5,22.9,48.8
			c0.4,0.8,0.8,1.8,0.8,2.7c-0.1,2.1-2.2,2.9-4.6,2c-7.3-2.8-14.6-5.6-22-8.5C92.6,388,76,381.6,59.4,375.2c-2.9-1.1-3.4-3-1.5-5.4
			C70,355,82.1,340.2,94.2,325.4C95.1,324.3,96.2,323.4,97,322.7z"/>
		<path class="st1" d="M136.8,267.7c0.4,1.7-0.4,3.1-1.7,4.5c-11.6,13.5-23.2,27-34.8,40.4c-2.1,2.5-4.5,2.2-5.7-0.8
			c-3-7.8-6-15.7-9-23.5c-0.6-1.5-0.3-2.6,0.8-3.7c14.4-14.3,28.8-28.6,43.2-43c1-1,2.2-1.7,3.4-0.9c0.9,0.5,1.8,1.7,1.9,2.8
			c0.5,3.7,0.6,7.3,0.9,11C136.2,258.8,136.5,263.1,136.8,267.7z"/>
		<path class="st1" d="M83,295.2c0.8,0.8,2,1.4,2.3,2.4c2.6,6.4,5,12.9,7.4,19.5c0.3,1,0,2.6-0.7,3.4
			c-11.1,14.5-22.3,28.9-33.5,43.3c-0.5,0.6-1.7,1.2-2.3,1c-1.3-0.4-0.9-1.6-0.5-2.6c5.2-14,10.5-28,15.7-42
			c2.7-7.3,5.5-14.7,8.2-22C80.2,296.7,80.9,295.5,83,295.2z"/>
	</g>
</g>
</svg>
